<svg width="200" height="200" viewBox="0 0 200 200" fill="none" xmlns="http://www.w3.org/2000/svg">
<g clip-path="url(#clip0)">
<path d="M200 53.6723H199.038V27.2769C199.038 23.2252 197.429 19.3395 194.564 16.4745C191.699 13.6095 187.813 12 183.761 12H127.838C125.831 12 123.845 12.3951 121.991 13.1628C120.138 13.9305 118.454 15.0557 117.035 16.4743C115.617 17.8929 114.491 19.577 113.724 21.4304C112.956 23.2839 112.561 25.2704 112.561 27.2766V172.084C112.561 176.136 114.17 180.021 117.035 182.886C119.9 185.751 123.786 187.361 127.837 187.361H183.76C187.812 187.361 191.698 185.751 194.563 182.886C197.428 180.021 199.037 176.136 199.037 172.084V72.461H200L200 53.6723Z" fill="#3F3D56"/>
<path d="M195.922 26.2536V173.107C195.922 176.179 194.701 179.125 192.529 181.297C190.357 183.47 187.412 184.691 184.34 184.692H127.269C124.196 184.692 121.248 183.472 119.075 181.299C116.901 179.127 115.68 176.18 115.679 173.107V26.2536C115.68 23.1806 116.901 20.2338 119.075 18.0613C121.248 15.8888 124.195 14.6686 127.268 14.6689H134.191C133.851 15.5049 133.722 16.4115 133.815 17.3092C133.907 18.2069 134.219 19.0681 134.722 19.8171C135.225 20.5661 135.905 21.18 136.701 21.6049C137.497 22.0298 138.386 22.2526 139.288 22.2537H171.825C172.727 22.2526 173.616 22.0298 174.412 21.6049C175.208 21.18 175.888 20.5661 176.391 19.8171C176.894 19.0681 177.206 18.2069 177.298 17.3092C177.391 16.4115 177.262 15.5049 176.922 14.6689H184.337C187.409 14.6695 190.355 15.8899 192.528 18.0618C194.7 20.2338 195.921 23.1795 195.922 26.2514V26.2536Z" fill="white"/>
<path d="M156.413 85.0039C149.915 85.0063 143.682 82.4275 139.086 77.8349C134.489 73.2422 131.905 67.0117 131.902 60.514V60.4923C131.902 60.4409 131.902 60.3869 131.905 60.3356C131.979 46.913 142.975 35.9824 156.413 35.9824C162.913 35.9821 169.148 38.5641 173.745 43.1604C178.341 47.7567 180.924 53.9909 180.924 60.4914C180.925 66.992 178.343 73.2264 173.746 77.8232C169.15 82.4201 162.916 85.0028 156.415 85.0031H156.413V85.0039ZM156.413 36.4981C150.078 36.5123 144.005 39.0257 139.512 43.4922C135.02 47.9587 132.472 54.0175 132.421 60.3521C132.419 60.4069 132.419 60.4508 132.419 60.4925C132.418 65.2388 133.825 69.8786 136.461 73.8252C139.098 77.7719 142.845 80.8482 147.23 82.665C151.615 84.4819 156.44 84.9577 161.095 84.0323C165.75 83.107 170.026 80.822 173.383 77.4663C176.739 74.1106 179.025 69.835 179.952 65.18C180.878 60.5251 180.404 55.7 178.588 51.3148C176.772 46.9296 173.697 43.1814 169.751 40.544C165.805 37.9067 161.165 36.4987 156.419 36.4981H156.413Z" fill="#E6E6E6"/>
<path d="M181.758 110.773H131.044C130.795 110.773 130.556 110.674 130.38 110.498C130.204 110.322 130.105 110.083 130.104 109.834V97.2545C130.105 97.0056 130.204 96.7669 130.38 96.5909C130.556 96.4148 130.795 96.3158 131.044 96.3154H181.758C182.007 96.3158 182.245 96.4148 182.421 96.5909C182.597 96.7669 182.696 97.0056 182.697 97.2545V109.835C182.696 110.083 182.597 110.322 182.421 110.498C182.245 110.674 182.007 110.773 181.758 110.774V110.773ZM131.044 96.691C130.894 96.6911 130.751 96.7505 130.645 96.8562C130.54 96.9618 130.48 97.1051 130.48 97.2545V109.835C130.48 109.984 130.54 110.127 130.645 110.233C130.751 110.339 130.894 110.398 131.044 110.398H181.758C181.907 110.398 182.05 110.339 182.156 110.233C182.262 110.127 182.321 109.984 182.321 109.835V97.2545C182.321 97.1051 182.262 96.9618 182.156 96.8562C182.05 96.7505 181.907 96.6911 181.758 96.691H131.044Z" fill="#E6E6E6"/>
<path d="M146.728 100.915C146.553 100.915 146.386 100.984 146.263 101.108C146.14 101.231 146.07 101.398 146.07 101.572C146.07 101.747 146.14 101.914 146.263 102.037C146.386 102.161 146.553 102.23 146.728 102.23H177.719C177.806 102.233 177.892 102.219 177.973 102.19C178.054 102.16 178.128 102.114 178.191 102.055C178.255 101.997 178.306 101.926 178.342 101.848C178.378 101.769 178.398 101.684 178.402 101.598C178.405 101.512 178.391 101.426 178.361 101.345C178.331 101.264 178.286 101.189 178.227 101.126C178.168 101.063 178.098 101.011 178.019 100.975C177.941 100.939 177.856 100.919 177.77 100.916C177.76 100.915 177.751 100.915 177.741 100.915H146.728V100.915Z" fill="#E6E6E6"/>
<path d="M146.728 104.859C146.553 104.859 146.386 104.929 146.263 105.052C146.14 105.175 146.07 105.342 146.07 105.517C146.07 105.691 146.14 105.858 146.263 105.982C146.386 106.105 146.553 106.174 146.728 106.174H177.719C177.806 106.178 177.892 106.164 177.973 106.134C178.054 106.104 178.128 106.058 178.191 106C178.255 105.941 178.306 105.87 178.342 105.792C178.378 105.713 178.398 105.629 178.402 105.542C178.405 105.456 178.391 105.37 178.361 105.289C178.331 105.208 178.286 105.134 178.227 105.07C178.168 105.007 178.098 104.956 178.019 104.92C177.941 104.884 177.856 104.863 177.77 104.86C177.76 104.86 177.751 104.86 177.741 104.86H146.728V104.859Z" fill="#E6E6E6"/>
<path d="M181.758 131.81H131.044C130.795 131.81 130.556 131.711 130.38 131.535C130.204 131.359 130.105 131.12 130.104 130.871V118.292C130.105 118.043 130.204 117.804 130.38 117.628C130.556 117.452 130.795 117.353 131.044 117.353H181.758C182.007 117.353 182.245 117.452 182.421 117.628C182.597 117.804 182.696 118.043 182.697 118.292V130.872C182.696 131.121 182.597 131.359 182.421 131.535C182.245 131.711 182.007 131.81 181.758 131.81ZM131.044 117.728C130.894 117.728 130.751 117.788 130.645 117.893C130.54 117.999 130.48 118.142 130.48 118.292V130.872C130.48 131.021 130.54 131.164 130.645 131.27C130.751 131.376 130.894 131.435 131.044 131.435H181.758C181.907 131.435 182.05 131.376 182.156 131.27C182.262 131.164 182.321 131.021 182.321 130.872V118.292C182.321 118.142 182.262 117.999 182.156 117.893C182.05 117.788 181.907 117.728 181.758 117.728H131.044Z" fill="#E6E6E6"/>
<path d="M146.728 121.951C146.553 121.951 146.386 122.02 146.263 122.144C146.14 122.267 146.07 122.434 146.07 122.609C146.07 122.783 146.14 122.95 146.263 123.073C146.386 123.197 146.553 123.266 146.728 123.266H177.719C177.891 123.265 178.056 123.197 178.178 123.076C178.3 122.955 178.37 122.791 178.373 122.619C178.376 122.447 178.311 122.281 178.193 122.156C178.075 122.032 177.913 121.958 177.741 121.951H146.728V121.951Z" fill="#E6E6E6"/>
<path d="M146.728 125.896C146.553 125.896 146.386 125.966 146.263 126.089C146.14 126.212 146.07 126.38 146.07 126.554C146.07 126.728 146.14 126.895 146.263 127.019C146.386 127.142 146.553 127.211 146.728 127.211H177.719C177.891 127.21 178.056 127.142 178.178 127.021C178.3 126.9 178.37 126.736 178.373 126.565C178.376 126.393 178.311 126.227 178.193 126.102C178.075 125.977 177.913 125.903 177.741 125.897H146.728V125.896Z" fill="#E6E6E6"/>
<path d="M181.758 152.847H131.044C130.795 152.846 130.556 152.747 130.38 152.571C130.204 152.395 130.105 152.157 130.104 151.908V139.328C130.105 139.079 130.204 138.84 130.38 138.664C130.556 138.488 130.795 138.389 131.044 138.389H181.758C182.007 138.389 182.245 138.488 182.421 138.664C182.597 138.84 182.696 139.079 182.697 139.328V151.908C182.696 152.157 182.597 152.395 182.421 152.571C182.245 152.747 182.007 152.847 181.758 152.847V152.847ZM131.044 138.764C130.894 138.764 130.751 138.824 130.645 138.929C130.54 139.035 130.48 139.178 130.48 139.328V151.908C130.48 152.057 130.54 152.2 130.645 152.306C130.751 152.412 130.894 152.471 131.044 152.471H181.758C181.907 152.471 182.05 152.412 182.156 152.306C182.262 152.2 182.321 152.057 182.321 151.908V139.328C182.321 139.178 182.262 139.035 182.156 138.929C182.05 138.824 181.907 138.764 181.758 138.764H131.044Z" fill="#E6E6E6"/>
<path d="M146.728 142.988C146.553 142.988 146.386 143.058 146.263 143.181C146.14 143.304 146.07 143.471 146.07 143.646C146.07 143.82 146.14 143.987 146.263 144.111C146.386 144.234 146.553 144.303 146.728 144.303H177.719C177.806 144.306 177.892 144.293 177.973 144.263C178.054 144.233 178.128 144.187 178.191 144.128C178.255 144.07 178.306 143.999 178.342 143.921C178.378 143.842 178.398 143.758 178.402 143.671C178.405 143.585 178.391 143.499 178.361 143.418C178.331 143.337 178.286 143.263 178.227 143.199C178.168 143.136 178.098 143.085 178.019 143.049C177.941 143.013 177.856 142.992 177.77 142.989C177.76 142.989 177.751 142.988 177.741 142.989H146.728V142.988Z" fill="#E6E6E6"/>
<path d="M146.728 146.933C146.553 146.933 146.386 147.002 146.263 147.125C146.14 147.248 146.07 147.416 146.07 147.59C146.07 147.764 146.14 147.932 146.263 148.055C146.386 148.178 146.553 148.248 146.728 148.248H177.719C177.806 148.251 177.892 148.237 177.973 148.207C178.054 148.177 178.128 148.132 178.191 148.073C178.255 148.014 178.306 147.944 178.342 147.865C178.378 147.787 178.398 147.702 178.402 147.616C178.405 147.529 178.391 147.443 178.361 147.362C178.331 147.281 178.286 147.207 178.227 147.144C178.168 147.08 178.098 147.029 178.019 146.993C177.941 146.957 177.856 146.937 177.77 146.933C177.76 146.933 177.751 146.933 177.741 146.933H146.728V146.933Z" fill="#E6E6E6"/>
<path d="M164.158 59.8973H157.009V52.749H155.818V59.8973H148.67V61.0886H155.818V68.2369H157.009V61.0886H164.158V59.8973Z" fill="#2E4392"/>
<path d="M54.3877 149.788C54.3877 149.788 48.543 156.189 47.708 170.94C46.8731 185.691 46.5947 187.361 46.5947 187.361H67.4689L71.3634 177.343L75.8175 187.36H95.5782C95.5782 187.36 97.8047 156.745 95.5782 155.91C93.3516 155.075 54.3877 149.788 54.3877 149.788Z" fill="#2F2E41"/>
<path d="M82.3582 74.5026C87.8917 74.5026 92.3776 70.0167 92.3776 64.4832C92.3776 58.9497 87.8917 54.4639 82.3582 54.4639C76.8247 54.4639 72.3389 58.9497 72.3389 64.4832C72.3389 70.0167 76.8247 74.5026 82.3582 74.5026Z" fill="#F7DBD3"/>
<path d="M125.637 150.068L110.329 122.235L101.422 107.763L111.999 103.031L117.844 114.442C117.844 114.442 125.637 125.853 127.585 135.317C129.533 144.78 131.481 149.233 131.481 149.233L125.637 150.068Z" fill="#F7DBD3"/>
<path d="M41.3045 141.995L64.1266 121.956L63.0146 105.813H56.6132L54.6639 114.163L36.2949 138.377L41.3045 141.995Z" fill="#F7DBD3"/>
<path d="M70.8072 79.3739C70.8072 79.3739 79.073 82.8391 85.2375 78.6016C85.2375 78.6016 100.309 81.0443 101.144 81.8788C101.979 82.7132 100.309 107.762 100.309 107.762L96.9695 121.957C96.9695 121.957 101.701 143.665 94.7429 149.232L96.1345 156.747C96.1345 156.747 65.2413 158.973 52.9951 151.458L55.2212 143.943L61.066 120.286L57.4478 87.4452C57.4478 87.4452 60.23 79.9305 70.8072 79.3739Z" fill="#D6D6D6"/>
<path d="M94.0474 83.1309L101.284 82.0186C101.284 82.0186 104.902 82.5752 108.242 89.5333C111.582 96.4913 115.2 105.676 115.2 105.676L102.676 111.242L92.3779 95.0997L94.0474 83.1309Z" fill="#D6D6D6"/>
<path d="M59.1182 86.0527L57.4483 87.4443C57.4483 87.4443 55.2217 95.5157 55.2217 101.082V108.597L65.2413 109.71L59.1182 86.0527Z" fill="#D6D6D6"/>
<path d="M72.3407 67.2023C72.3407 67.2023 70.9787 65.7315 71.1166 63.8904C71.2075 62.843 71.1405 61.7879 70.918 60.7605C70.918 60.7605 71.3443 57.747 71.9738 56.0001C72.6032 54.2532 72.0725 53.6455 74.7782 52.6919C77.484 51.7382 75.7615 48.2898 83.7383 51.0387C84.0417 51.3451 84.429 51.5547 84.8514 51.6411C85.2738 51.7275 85.7124 51.6869 86.1117 51.5243C87.5845 50.9849 88.472 53.0082 88.472 53.0082C88.472 53.0082 89.3906 52.2544 89.906 53.038C90.4215 53.8217 92.9145 52.0358 93.8292 57.7362C94.7439 63.4366 91.6051 68.5202 91.6051 68.5202C91.6051 68.5202 91.1647 59.3982 85.9841 59.2327C80.8036 59.0671 74.945 57.105 74.2184 60.9463C73.4917 64.7875 72.3407 67.2023 72.3407 67.2023Z" fill="#2F2E41"/>
<path d="M37.6539 146.258C40.0386 146.258 41.9718 144.325 41.9718 141.94C41.9718 139.555 40.0386 137.622 37.6539 137.622C35.2691 137.622 33.3359 139.555 33.3359 141.94C33.3359 144.325 35.2691 146.258 37.6539 146.258Z" fill="#F7DBD3"/>
<path d="M6.52499 171.104L77.6392 156.908L71.6963 127.137L0.582031 141.331L6.52499 171.104Z" fill="white"/>
<path d="M78.2213 157.297L6.1369 171.687L0 140.943L72.0844 126.554L78.2213 157.297ZM6.91363 170.522L77.0577 156.52L71.3079 127.718L1.16412 141.72L6.91363 170.522Z" fill="#E4E4E4"/>
<path d="M29.7119 161.64L29.6827 161.652C29.4508 161.748 29.2157 161.838 28.9743 161.917C28.8931 161.945 28.809 161.97 28.7275 161.995C28.646 162.019 28.5617 162.045 28.4773 162.068C28.3399 162.108 28.1993 162.143 28.0579 162.175C27.9974 162.191 27.9337 162.204 27.8726 162.217L27.8359 162.225C27.7602 162.241 27.6844 162.257 27.6081 162.271L27.4109 162.306C27.3742 162.313 27.3379 162.319 27.3022 162.324C25.7339 162.57 24.1303 162.457 22.6119 161.994C21.0934 161.531 19.6997 160.73 18.5356 159.65C17.3714 158.571 16.4671 157.242 15.8906 155.763C15.3142 154.284 15.0806 152.693 15.2074 151.111C15.3342 149.529 15.8181 147.996 16.6228 146.627C17.4275 145.259 18.5319 144.091 19.8531 143.211C21.1743 142.331 22.6778 141.761 24.2506 141.546C25.8234 141.331 27.4245 141.475 28.9336 141.968C27.5678 143.202 26.5503 144.773 25.9831 146.523C25.4159 148.274 25.3188 150.144 25.7017 151.944C26.0846 153.744 26.9339 155.412 28.1646 156.781C29.3952 158.149 30.964 159.17 32.7136 159.741C31.8289 160.541 30.8139 161.183 29.7125 161.641L29.7119 161.64Z" fill="#2E4392"/>
<path d="M44.7242 156.3C45.1832 156.53 45.6588 156.725 46.1469 156.884C44.7802 158.122 43.11 158.977 41.306 159.36L41.174 159.388C39.5991 159.704 37.9726 159.655 36.4198 159.244C34.867 158.833 33.4292 158.071 32.217 157.017C31.0048 155.963 30.0506 154.645 29.4278 153.164C28.805 151.683 28.5302 150.08 28.6246 148.476C28.7189 146.872 29.1799 145.312 29.972 143.914C30.7641 142.517 31.8663 141.32 33.1937 140.415C34.5211 139.511 36.0383 138.923 37.6286 138.696C39.2189 138.47 40.84 138.612 42.3669 139.111C41.0939 140.255 40.1203 141.693 39.5315 143.3C38.9426 144.907 38.7563 146.634 38.9888 148.33C39.2214 150.026 39.8657 151.639 40.8655 153.028C41.8653 154.417 43.1901 155.54 44.7242 156.3L44.7242 156.3Z" fill="#2E4392"/>
<path d="M62.8223 144.05C63.2544 146.081 63.0743 148.195 62.305 150.124C61.5356 152.053 60.2115 153.711 58.5001 154.887C56.7886 156.064 54.7668 156.706 52.6901 156.734C50.6135 156.761 48.5753 156.172 46.8334 155.041C45.0915 153.91 43.7241 152.288 42.904 150.38C42.084 148.472 41.8482 146.364 42.2264 144.322C42.6046 142.28 43.5799 140.395 45.0289 138.908C46.478 137.42 48.3356 136.395 50.367 135.963C51.7158 135.676 53.1079 135.658 54.4638 135.909C55.8197 136.16 57.1129 136.676 58.2695 137.427C59.426 138.178 60.4234 139.149 61.2046 140.285C61.9858 141.422 62.5355 142.701 62.8223 144.05Z" fill="#2E4392"/>
<path d="M58.4257 153.42C58.525 153.885 58.5769 154.358 58.5806 154.833C57.4243 155.643 56.117 156.211 54.7365 156.505C53.356 156.798 51.9305 156.811 50.5449 156.543C50.355 156.107 50.2096 155.653 50.1111 155.188C49.5972 152.772 50.3937 150.468 51.9426 149.426C51.2055 149.285 50.5398 148.894 50.0584 148.318C49.5771 147.743 49.3098 147.018 49.3019 146.268C49.2941 145.517 49.5461 144.787 50.0153 144.202C50.4844 143.616 51.1418 143.211 51.8758 143.055C52.6098 142.898 53.3752 143.001 54.0421 143.345C54.709 143.689 55.2363 144.253 55.5344 144.942C55.8326 145.631 55.8833 146.401 55.6779 147.123C55.4725 147.845 55.0237 148.473 54.4076 148.902C56.2474 149.223 57.9119 151.004 58.4257 153.42Z" fill="white"/>
<path d="M44.7245 156.301L44.7313 156.333C44.8196 156.916 44.8596 157.506 44.8509 158.096C43.7631 158.859 42.5473 159.08 41.1743 159.39L41.0423 159.418C39.662 159.713 38.2361 159.726 36.8507 159.455C36.8319 159.416 36.8156 159.375 36.8017 159.333C36.6343 158.935 36.5055 158.523 36.4171 158.101C35.9033 155.685 36.6997 153.381 38.2487 152.339C37.5115 152.198 36.8457 151.807 36.3642 151.231C35.8828 150.656 35.6155 149.931 35.6076 149.181C35.5997 148.43 35.8518 147.7 36.3211 147.115C36.7903 146.529 37.4478 146.124 38.1818 145.968C38.4306 145.914 38.6849 145.891 38.9392 145.899C38.736 148.015 39.1804 150.143 40.2136 152C41.2468 153.858 42.82 155.358 44.7248 156.301L44.7245 156.301Z" fill="white"/>
<path d="M31.5506 159.284C31.634 159.702 31.6774 160.128 31.6804 160.555C30.8493 161.138 29.9378 161.597 28.9745 161.917C28.8933 161.945 28.8092 161.97 28.7277 161.995C28.6462 162.02 28.5619 162.046 28.4775 162.069C28.3402 162.108 28.1995 162.143 28.0582 162.176C28.0292 162.184 27.9976 162.191 27.9682 162.197L27.8362 162.225C27.7604 162.241 27.6846 162.258 27.6084 162.271L27.4111 162.306C27.3744 162.313 27.3382 162.319 27.3024 162.324C26.0892 162.52 24.8508 162.499 23.6447 162.263C23.6415 162.258 23.6394 162.253 23.6386 162.247C23.6218 162.212 23.6075 162.177 23.5957 162.141C23.4283 161.743 23.2995 161.331 23.2111 160.909C22.6972 158.493 23.4936 156.189 25.0426 155.147C24.3054 155.006 23.6396 154.615 23.1582 154.039C22.6768 153.464 22.4094 152.739 22.4015 151.989C22.3937 151.238 22.6458 150.508 23.115 149.923C23.5842 149.337 24.2417 148.932 24.9758 148.776C25.1519 148.738 25.3309 148.715 25.5109 148.708C25.292 150.88 25.7563 153.066 26.8389 154.962C27.9216 156.858 29.5688 158.368 31.5508 159.283L31.5506 159.284Z" fill="white"/>
<path d="M139.743 105.431C139.743 105.669 139.719 105.906 139.672 106.139C139.022 106.414 138.323 106.556 137.618 106.556C136.912 106.556 136.213 106.414 135.563 106.139C135.516 105.906 135.492 105.669 135.492 105.431C135.492 104.196 136.121 103.152 136.987 102.803C136.642 102.658 136.357 102.397 136.181 102.065C136.005 101.734 135.95 101.351 136.024 100.984C136.098 100.616 136.298 100.285 136.588 100.047C136.879 99.8095 137.242 99.6797 137.617 99.6797C137.993 99.6797 138.356 99.8095 138.647 100.047C138.937 100.285 139.136 100.616 139.211 100.984C139.285 101.351 139.229 101.734 139.054 102.065C138.878 102.397 138.593 102.658 138.248 102.803C139.114 103.152 139.743 104.196 139.743 105.431Z" fill="#2E4392"/>
<path d="M139.743 126.895C139.743 127.133 139.719 127.37 139.672 127.603C139.022 127.878 138.323 128.02 137.618 128.02C136.912 128.02 136.213 127.878 135.563 127.603C135.516 127.37 135.492 127.133 135.492 126.895C135.492 125.66 136.121 124.616 136.987 124.267C136.642 124.122 136.357 123.861 136.181 123.529C136.005 123.198 135.95 122.815 136.024 122.447C136.098 122.08 136.298 121.749 136.588 121.511C136.879 121.273 137.242 121.144 137.617 121.144C137.993 121.144 138.356 121.273 138.647 121.511C138.937 121.749 139.136 122.08 139.211 122.447C139.285 122.815 139.229 123.198 139.054 123.529C138.878 123.861 138.593 124.122 138.248 124.267C139.114 124.616 139.743 125.66 139.743 126.895Z" fill="#2E4392"/>
<path d="M139.743 147.931C139.743 148.169 139.719 148.406 139.672 148.639C139.022 148.914 138.323 149.056 137.618 149.056C136.912 149.056 136.213 148.914 135.563 148.639C135.516 148.406 135.492 148.169 135.492 147.931C135.492 146.696 136.121 145.652 136.987 145.303C136.642 145.158 136.357 144.897 136.181 144.565C136.005 144.234 135.95 143.851 136.024 143.484C136.098 143.116 136.298 142.785 136.588 142.547C136.879 142.31 137.242 142.18 137.617 142.18C137.993 142.18 138.356 142.31 138.647 142.547C138.937 142.785 139.136 143.116 139.211 143.484C139.285 143.851 139.229 144.234 139.054 144.565C138.878 144.897 138.593 145.158 138.248 145.303C139.114 145.652 139.743 146.696 139.743 147.931Z" fill="#2E4392"/>
<path d="M128.824 155.141C131.004 155.141 132.772 153.373 132.772 151.193C132.772 149.013 131.004 147.245 128.824 147.245C126.643 147.245 124.876 149.013 124.876 151.193C124.876 153.373 126.643 155.141 128.824 155.141Z" fill="#F7DBD3"/>
</g>
<defs>
<clipPath id="clip0">
<rect width="200" height="200" fill="white"/>
</clipPath>
</defs>
</svg>
