<svg width="200" height="200" viewBox="0 0 200 200" fill="none" xmlns="http://www.w3.org/2000/svg">
<path d="M186.14 170.86C186.14 170.916 148.256 170.964 101.536 170.964C54.816 170.964 16.928 170.916 16.928 170.86C16.928 170.804 54.804 170.756 101.536 170.756C148.268 170.756 186.14 170.8 186.14 170.86Z" fill="#EBEBEB"/>
<path d="M186.14 153.252C186.14 153.312 148.256 153.36 101.536 153.36C54.816 153.36 16.928 153.312 16.928 153.252C16.928 153.192 54.804 153.148 101.536 153.148C148.268 153.148 186.14 153.2 186.14 153.252Z" fill="#EBEBEB"/>
<path d="M186.14 134.516C186.14 134.576 148.256 134.62 101.536 134.62C54.816 134.62 16.928 134.576 16.928 134.516C16.928 134.456 54.8 134.4 101.536 134.4C148.272 134.4 186.14 134.46 186.14 134.516Z" fill="#EBEBEB"/>
<path d="M186.14 98.1719C186.14 98.2319 148.256 98.2799 101.536 98.2799C54.816 98.2799 16.928 98.2319 16.928 98.1719C16.928 98.1119 54.804 98.0679 101.536 98.0679C148.268 98.0679 186.14 98.1159 186.14 98.1719Z" fill="#EBEBEB"/>
<path d="M186.14 80.5679C186.14 80.6239 148.256 80.6719 101.536 80.6719C54.816 80.6719 16.928 80.6239 16.928 80.5679C16.928 80.5119 54.804 80.4639 101.536 80.4639C148.268 80.4639 186.14 80.5119 186.14 80.5679Z" fill="#EBEBEB"/>
<path d="M186.14 61.832C186.14 61.888 148.256 61.936 101.536 61.936C54.816 61.936 16.928 61.888 16.928 61.832C16.928 61.776 54.804 61.728 101.536 61.728C148.268 61.728 186.14 61.772 186.14 61.832Z" fill="#EBEBEB"/>
<path d="M186.14 43.3601C186.14 43.4201 148.256 43.4641 101.536 43.4641C54.816 43.4641 16.928 43.4201 16.928 43.3601C16.928 43.3001 54.804 43.2561 101.536 43.2561C148.268 43.2561 186.14 43.3041 186.14 43.3601Z" fill="#EBEBEB"/>
<path d="M165.648 179.852C164.054 179.149 162.311 178.849 160.573 178.979C158.835 179.109 157.156 179.664 155.684 180.596C155.293 177.861 154.296 175.249 152.766 172.948C151.236 170.648 149.212 168.718 146.841 167.3C144.47 165.882 141.813 165.011 139.063 164.751C136.312 164.49 133.539 164.848 130.944 165.796C130.484 162.667 129.278 159.694 127.429 157.128C125.579 154.563 123.14 152.479 120.317 151.053C117.493 149.628 114.369 148.901 111.206 148.936C108.043 148.971 104.935 149.765 102.144 151.252C100.284 149.785 98.1132 148.763 95.7971 148.265C93.481 147.768 91.0817 147.808 88.7835 148.382C86.4852 148.956 84.3492 150.05 82.5395 151.578C80.7298 153.107 79.2945 155.03 78.344 157.2C75.8637 155.028 72.8392 153.571 69.5945 152.987C66.3497 152.402 63.007 152.711 59.9245 153.881C56.842 155.05 54.1357 157.037 52.0957 159.627C50.0557 162.217 48.7589 165.313 48.344 168.584C46.0196 167.822 43.5542 167.59 41.1283 167.904C38.7024 168.218 36.3776 169.071 34.324 170.4C30.248 173.1 26 181.368 25.6 186.236L171.092 186.968C170.604 183.532 168.8 181.284 165.648 179.852Z" fill="#F5F5F5"/>
<path d="M20 62.5803L41.9372 34.979L63.6441 62.4174L20 62.5803Z" fill="#EBEBEB"/>
<path d="M51.9583 58.0817L32.0778 58.1545L32.3725 138.547L52.253 138.475L51.9583 58.0817Z" fill="#EBEBEB"/>
<path d="M63.6441 43.4134L75.8995 28L88.02 43.3235L63.6441 43.4134Z" fill="#F5F5F5"/>
<path d="M81.4968 40.9027L70.3934 40.9434L70.558 85.8346L81.6614 85.7939L81.4968 40.9027Z" fill="#F5F5F5"/>
<path d="M13.864 182.944C40.2041 184.029 66.2153 176.778 88.196 162.224C109.964 147.728 122.5 123.788 131.52 99.24L149.772 105.504C149.772 105.504 138.2 160.96 106.572 186.584H13.864V182.944Z" fill="#0E3C6C"/>
<g opacity="0.6">
<path opacity="0.6" d="M13.864 182.944C40.2041 184.029 66.2153 176.778 88.196 162.224C109.964 147.728 122.5 123.788 131.52 99.24L149.772 105.504C149.772 105.504 138.2 163.504 106.572 186.584H13.864V182.944Z" fill="white"/>
</g>
<path d="M129.456 105.74C129.592 105.788 129.536 106.32 129.304 107.292C129.188 107.776 129.028 108.372 128.828 109.072L128.492 110.196C128.364 110.596 128.212 110.996 128.052 111.46C127.732 112.348 127.372 113.336 126.964 114.412C126.556 115.488 126.032 116.624 125.5 117.856C124.968 119.088 124.3 120.376 123.652 121.752C123.004 123.128 122.196 124.532 121.384 126.02L120.764 127.148C120.536 127.52 120.312 127.896 120.08 128.276L118.668 130.6L118.304 131.196L117.904 131.784L117.104 132.984C116.564 133.784 116.036 134.608 115.452 135.42C114.252 137.02 113.088 138.728 111.728 140.368C111.06 141.196 110.404 142.06 109.688 142.888C108.972 143.716 108.244 144.552 107.504 145.4L106.948 146.04L106.364 146.66L105.2 147.9L104 149.164C103.6 149.588 103.172 149.964 102.752 150.4C101.904 151.22 101.064 152.064 100.184 152.884L97.472 155.316C93.6443 158.627 89.6051 161.686 85.38 164.472C77.2003 169.811 68.4197 174.166 59.22 177.448L56.076 178.532L52.976 179.472L51.456 179.928L49.944 180.328L46.992 181.084C46.02 181.308 45.056 181.484 44.116 181.704C43.176 181.924 42.252 182.104 41.316 182.252L38.632 182.696C38.192 182.764 37.76 182.848 37.328 182.904L36.052 183.056C34.364 183.252 32.764 183.456 31.252 183.552C29.74 183.648 28.296 183.788 26.948 183.784C25.6 183.78 24.352 183.844 23.2 183.828C22.048 183.812 20.996 183.74 20.052 183.692C19.58 183.664 19.136 183.648 18.72 183.612L17.548 183.476C16.824 183.388 16.216 183.3 15.724 183.216C14.74 183.052 14.228 182.892 14.236 182.748C14.244 182.604 14.772 182.484 15.756 182.38C16.252 182.328 16.86 182.28 17.576 182.236L18.732 182.18L20.048 182.068C20.976 181.994 22.004 181.918 23.132 181.84C24.256 181.74 25.476 181.592 26.784 181.464C28.092 181.336 29.484 181.112 30.96 180.916C32.436 180.72 34 180.4 35.6 180.136L36.836 179.916C37.236 179.84 37.668 179.74 38.088 179.648L40.68 179.088C41.564 178.916 42.448 178.664 43.356 178.436L46.128 177.724L48.964 176.888L50.416 176.46L51.876 175.972L54.856 174.976L57.88 173.844C66.7109 170.462 75.1581 166.152 83.08 160.988C87.1568 158.3 91.0704 155.372 94.8 152.22L97.452 149.908C98.312 149.128 99.136 148.308 99.972 147.548C100.372 147.148 100.808 146.78 101.2 146.376C101.592 145.972 102 145.576 102.376 145.176L103.544 143.976L104.124 143.392L104.676 142.788L106.852 140.408C107.568 139.608 108.224 138.808 108.896 138.008C110.264 136.46 111.456 134.848 112.672 133.336C113.268 132.572 113.812 131.784 114.368 131.032L115.192 129.912L115.592 129.356L115.992 128.796L117.476 126.6L118.196 125.54L118.86 124.476C119.732 123.072 120.604 121.756 121.328 120.452C122.052 119.148 122.816 117.96 123.416 116.788C124.016 115.616 124.616 114.548 125.164 113.556C125.712 112.564 126.136 111.62 126.564 110.792C126.78 110.392 126.964 109.992 127.172 109.62C127.38 109.248 127.524 108.904 127.68 108.58C128 107.936 128.284 107.38 128.524 106.98C129 106.124 129.32 105.692 129.456 105.74Z" fill="#0E3C6C"/>
<path d="M130.464 114.272C128.592 116.386 127.157 118.849 126.24 121.52C126.112 121.902 126.107 122.314 126.227 122.698C126.347 123.083 126.584 123.42 126.906 123.662C127.228 123.903 127.618 124.037 128.02 124.045C128.423 124.053 128.817 123.934 129.148 123.704L129.188 123.676C127.883 126.875 126.789 130.155 125.912 133.496C125.788 133.965 125.811 134.46 125.978 134.915C126.145 135.37 126.448 135.763 126.846 136.04C127.245 136.316 127.718 136.464 128.203 136.462C128.688 136.46 129.16 136.308 129.556 136.028C136.687 130.973 141.742 123.503 143.784 115.004L130.464 114.272Z" fill="#0E3C6C"/>
<g opacity="0.3">
<path opacity="0.3" d="M131.1 117.704C130.756 118.046 130.484 118.455 130.3 118.904C130.212 119.129 130.192 119.375 130.241 119.611C130.29 119.847 130.406 120.065 130.576 120.236C131.124 120.7 132.064 120.42 132.576 120.912C133.088 121.404 132.8 122.356 132.436 123.028L131.284 125.16C131.004 125.68 130.728 126.36 131.092 126.824C131.456 127.288 132.316 127.16 132.904 126.864C134.26 126.159 135.424 125.136 136.297 123.882C137.17 122.628 137.726 121.18 137.916 119.664L131.1 117.704Z" fill="black"/>
</g>
<path d="M162.82 89.1001L162.928 89.2561C165.994 93.8405 167.992 99.0548 168.774 104.514C169.557 109.974 169.103 115.539 167.448 120.8L165.348 127.484L154.968 114.096L162.82 89.1001Z" fill="#0E3C6C"/>
<path d="M162.82 89.1002L162.784 89.2242L162.672 89.5882C162.572 89.9082 162.432 90.3882 162.248 90.9722C161.872 92.1722 161.328 93.9402 160.648 96.1522C159.272 100.552 157.336 106.804 155.048 114.12V114.032L164.512 126.232L165.428 127.432L165.248 127.468C165.669 126.135 166.083 124.822 166.488 123.528C166.888 122.232 167.316 120.96 167.656 119.7C168.338 117.281 168.772 114.799 168.952 112.292C169.117 110.026 169.066 107.749 168.8 105.492C168.704 104.428 168.496 103.42 168.332 102.448C168.168 101.476 167.932 100.552 167.66 99.6922C166.887 96.9388 165.793 94.286 164.4 91.7882C163.936 90.8922 163.492 90.2482 163.224 89.7882L162.804 89.0962C162.804 89.0962 162.844 89.1442 162.928 89.2602L163.256 89.7642C163.536 90.2162 163.996 90.8562 164.456 91.7642C165.872 94.2523 166.983 96.9021 167.764 99.6562C168.044 100.52 168.224 101.456 168.456 102.42C168.624 103.396 168.836 104.42 168.936 105.476C169.213 107.74 169.27 110.025 169.108 112.3C168.933 114.821 168.501 117.318 167.82 119.752C167.48 121.024 167.048 122.288 166.652 123.584C166.256 124.88 165.852 126.192 165.416 127.524L165.356 127.716L165.232 127.556C164.944 127.184 164.628 126.78 164.316 126.356L154.86 114.148L154.832 114.108V114.06L160.552 96.0402C161.252 93.8482 161.804 92.1082 162.188 90.9082C162.376 90.3202 162.524 89.8682 162.624 89.5522L162.8 89.2002C162.804 89.1663 162.81 89.1329 162.82 89.1002Z" fill="#263238"/>
<path d="M124.912 77.2002L124.732 77.2682C119.666 79.2489 115.109 82.3415 111.398 86.3181C107.686 90.2947 104.915 95.0537 103.288 100.244L101.22 106.836L117.168 101.852L124.912 77.2002Z" fill="#0E3C6C"/>
<path d="M124.912 77.2001C124.912 77.2001 124.912 77.2361 124.88 77.3121C124.848 77.3881 124.82 77.5121 124.776 77.6561C124.68 77.9681 124.54 78.4201 124.376 79.0001L122.8 84.0681L117.268 101.872V101.924H117.22L102.684 106.476L101.272 106.916L101.084 106.976L101.144 106.784L102.344 102.9C102.744 101.624 103.12 100.36 103.544 99.1401C104.366 96.7858 105.425 94.5209 106.704 92.3801C107.859 90.4471 109.199 88.6306 110.704 86.9561C111.388 86.1561 112.128 85.4481 112.816 84.7521C113.504 84.0561 114.22 83.4481 114.932 82.9041C117.119 81.1212 119.514 79.609 122.064 78.4001C122.952 77.9441 123.664 77.6881 124.164 77.4801L124.716 77.2561L124.912 77.1921L124.18 77.5161C123.704 77.7361 122.98 78.0041 122.1 78.4681C119.572 79.708 117.197 81.2383 115.024 83.0281C114.32 83.5761 113.648 84.2281 112.924 84.8801C112.2 85.5321 111.508 86.2761 110.832 87.0801C109.343 88.7529 108.018 90.5652 106.876 92.4921C105.612 94.6179 104.564 96.8651 103.748 99.2001C103.312 100.4 102.948 101.684 102.548 102.956C102.148 104.228 101.748 105.532 101.348 106.844L101.22 106.712L102.632 106.272L117.172 101.736L117.108 101.8C119.392 94.6001 121.344 88.4601 122.708 84.1121C123.4 81.9361 123.952 80.2081 124.332 79.0161C124.52 78.4281 124.668 77.9721 124.768 77.6561C124.816 77.5041 124.856 77.3881 124.884 77.3001C124.891 77.2662 124.9 77.2327 124.912 77.2001Z" fill="#263238"/>
<path d="M164.4 17.7002C161.4 16.7602 153.448 22.7842 144.252 34.1322C135.2 45.3082 131.452 56.3682 131.452 56.3682L113.936 112.14L128.632 116.756L137.148 119.428L151.844 124.044L167.74 73.4362C169.3 68.4922 170.384 63.4104 170.976 58.2602C171.585 53.0973 171.779 47.894 171.556 42.7002C170.828 28.1722 167.42 18.6442 164.416 17.7002" fill="#F5F5F5"/>
<path d="M164.4 17.7001L164.532 17.7481L164.696 17.8121L164.908 17.9321C165.366 18.2314 165.765 18.6108 166.088 19.0521C166.972 20.1921 167.92 22.1241 168.748 24.7401C169.722 27.9406 170.425 31.2175 170.848 34.5361C171.116 36.4801 171.332 38.5681 171.484 40.7961C171.636 43.0241 171.728 45.3841 171.7 47.8681C171.672 50.3521 171.54 52.9561 171.3 55.6681C171.06 58.4935 170.678 61.3051 170.156 64.0921C169.587 67.0877 168.852 70.0496 167.956 72.9641C167.015 75.9668 166.045 79.0614 165.048 82.2481C161.048 94.9761 156.628 109.084 151.924 124.076L151.896 124.176L151.796 124.144L132.844 118.192L113.888 112.236L113.788 112.208L113.82 112.108C118.532 97.1161 122.968 83.0081 126.972 70.2801C127.972 67.0961 128.944 64.0028 129.888 61.0001C130.36 59.5014 130.825 58.0241 131.284 56.5681C131.776 55.1201 132.364 53.7401 132.964 52.3961C135.208 47.4357 137.916 42.6986 141.052 38.2481C143.663 34.6358 146.502 31.1941 149.552 27.9441C151.819 25.4791 154.269 23.1886 156.88 21.0921C159.036 19.3961 160.88 18.3161 162.268 17.8641C162.781 17.6803 163.323 17.5921 163.868 17.6041L164.108 17.6241L164.28 17.6641L164.412 17.7001L164.276 17.6761L164.108 17.6401L163.868 17.6201C163.322 17.6175 162.78 17.7124 162.268 17.9001C160.908 18.3601 159.068 19.4481 156.912 21.1521C154.324 23.2526 151.895 25.5415 149.644 28.0001C146.614 31.2608 143.793 34.7104 141.2 38.3281C138.077 42.7747 135.381 47.5064 133.148 52.4601C132.552 53.8041 131.948 55.1841 131.48 56.6201L130.088 61.0521C129.147 64.0548 128.177 67.1494 127.18 70.3361C123.18 83.0641 118.78 97.1761 114.052 112.172L113.984 112.04L132.924 118L151.876 123.956L151.744 124.024L164.892 82.2001L167.808 72.9241C168.701 70.0134 169.433 67.0556 170 64.0641C170.556 61.1761 170.908 58.3641 171.156 55.6641C171.404 52.9641 171.532 50.3561 171.556 47.8721C171.58 45.3881 171.508 43.0361 171.356 40.8121C171.204 38.5881 170.996 36.5001 170.732 34.5601C170.319 31.2455 169.629 27.9713 168.668 24.7721C167.868 22.1561 166.92 20.2241 166.048 19.0841C165.731 18.6426 165.338 18.2607 164.888 17.9561L164.68 17.8321L164.52 17.7681L164.4 17.7001Z" fill="#263238"/>
<path d="M160.591 71.5349C168.969 67.024 172.103 56.576 167.592 48.1984C163.082 39.8209 152.634 36.6863 144.256 41.1972C135.878 45.708 132.744 56.1561 137.255 64.5336C141.766 72.9111 152.214 76.0457 160.591 71.5349Z" fill="white"/>
<path d="M165.924 48.196C165.826 48.2059 165.727 48.1958 165.633 48.1664C165.54 48.137 165.453 48.0889 165.378 48.025C165.303 47.9611 165.242 47.8827 165.198 47.7945C165.155 47.7063 165.129 47.6102 165.124 47.512C165.115 47.1184 165.249 46.7349 165.5 46.432C165.748 46.1306 165.959 45.8002 166.128 45.448C166.247 45.1119 166.256 44.7464 166.152 44.4052C166.048 44.064 165.838 43.7649 165.552 43.552C165.744 43.468 165.917 43.3462 166.06 43.1938C166.204 43.0414 166.315 42.8616 166.388 42.6651C166.46 42.4687 166.492 42.2596 166.482 42.0505C166.472 41.8413 166.419 41.6364 166.328 41.448C166.104 41.1222 165.849 40.8182 165.568 40.54C165.426 40.3643 165.302 40.1755 165.196 39.976C165.456 40.1333 165.746 40.2341 166.048 40.272C166.294 40.2939 166.541 40.2533 166.767 40.154C166.993 40.0547 167.19 39.8999 167.34 39.704C167.485 39.5045 167.571 39.2683 167.589 39.0223C167.607 38.7763 167.555 38.5302 167.44 38.312C167.321 38.096 167.137 37.9221 166.915 37.814C166.694 37.706 166.444 37.6689 166.2 37.708C165.735 37.8447 165.325 38.1247 165.028 38.508L164.724 38.84C164.388 37.896 164.092 36.94 163.288 36.392C162.56 35.896 161.612 35.896 160.792 35.592C160.196 35.356 159.68 34.952 159.092 34.692C158.504 34.432 157.768 34.348 157.256 34.732C156.952 34.956 156.768 35.312 156.456 35.532C155.828 35.992 154.856 35.776 154.288 36.308C153.828 36.744 153.844 37.48 153.532 38.028C153.22 38.576 152.516 38.928 151.932 39.284C151.348 39.64 150.756 40.2 150.808 40.884C150.852 41.484 151.388 41.972 151.424 42.576C151.384 43.0148 151.262 43.4423 151.064 43.836C150.924 44.236 150.936 44.808 151.316 45.036L155.596 47.732C156.996 48.892 158.444 50.076 160.18 50.62C161.916 51.164 164.032 50.912 165.216 49.532C164.966 49.4407 164.76 49.2576 164.64 49.02C164.902 48.9883 165.154 48.8978 165.376 48.7551C165.599 48.6124 165.786 48.4213 165.924 48.196Z" fill="#263238"/>
<path d="M161.64 48.4561C162.424 47.4136 163.118 46.3055 163.712 45.1441C164.307 43.9759 164.602 42.6785 164.572 41.3681C164.572 41.1721 164.376 39.808 164.172 39.768C164.036 39.74 164.032 40.9681 163.928 41.0481C162.957 41.9991 162.297 43.2223 162.036 44.5561C161.757 45.837 161.623 47.1452 161.636 48.4561" fill="#263238"/>
<path d="M154.148 57.872C157.616 59.072 159.724 54.544 159.724 54.544L163.252 43.744C164.332 40.656 163.436 37.452 160.32 36.456L160.028 36.38C158.604 36.0146 157.094 36.1991 155.8 36.8966C154.506 37.5941 153.522 38.7536 153.044 40.144C152.12 42.828 151.136 45.8 150.776 47.276C150.036 50.328 152.956 51.58 152.956 51.58C152.956 51.58 152.756 52.276 152.488 53.16C151.888 55.16 152.364 57.472 153.156 57.648L154.148 57.872Z" fill="#F6DBD3"/>
<path d="M152.956 51.6001C154.362 51.9556 155.84 51.9014 157.216 51.4441C157.216 51.4441 155.684 53.4081 152.72 52.3561L152.956 51.6001Z" fill="#896357"/>
<path d="M153.6 42.7999C153.569 42.9129 153.584 43.0335 153.642 43.1353C153.7 43.2372 153.795 43.3122 153.908 43.3439C153.962 43.3626 154.019 43.3703 154.076 43.3664C154.133 43.3626 154.189 43.3474 154.24 43.3217C154.291 43.2959 154.337 43.2602 154.374 43.2166C154.411 43.1731 154.439 43.1225 154.456 43.0679C154.487 42.955 154.472 42.8344 154.414 42.7326C154.356 42.6307 154.261 42.5557 154.148 42.5239C154.094 42.5053 154.037 42.4976 153.98 42.5014C153.923 42.5053 153.867 42.5205 153.816 42.5462C153.765 42.572 153.719 42.6077 153.682 42.6512C153.645 42.6948 153.617 42.7454 153.6 42.7999Z" fill="#263238"/>
<path d="M153.368 41.5761C153.408 41.6481 153.8 41.4881 154.268 41.6081C154.736 41.7281 155.016 42.0521 155.068 42.0081C155.12 41.9641 155.068 41.8721 154.948 41.7241C154.782 41.5282 154.56 41.3884 154.312 41.3241C154.069 41.262 153.813 41.2774 153.58 41.3681C153.424 41.4561 153.348 41.5441 153.368 41.5761Z" fill="#263238"/>
<path d="M157.78 44.0601C157.75 44.173 157.766 44.2931 157.823 44.3947C157.881 44.4963 157.976 44.5714 158.088 44.6041C158.142 44.6228 158.199 44.6304 158.256 44.6266C158.313 44.6228 158.369 44.6075 158.42 44.5818C158.471 44.5561 158.517 44.5204 158.554 44.4768C158.591 44.4332 158.619 44.3826 158.636 44.3281C158.667 44.2157 158.652 44.0956 158.595 43.9938C158.539 43.892 158.444 43.8167 158.332 43.7841C158.278 43.7654 158.22 43.7577 158.163 43.7614C158.105 43.7652 158.049 43.7804 157.998 43.8061C157.947 43.8318 157.901 43.8675 157.863 43.9111C157.826 43.9547 157.798 44.0054 157.78 44.0601Z" fill="#263238"/>
<path d="M157.9 42.9401C157.94 43.0081 158.332 42.8521 158.796 42.9721C159.26 43.0921 159.548 43.4121 159.596 43.3721C159.644 43.3321 159.596 43.2401 159.476 43.0921C159.313 42.8949 159.092 42.7547 158.844 42.6921C158.602 42.6258 158.344 42.6412 158.112 42.7361C157.956 42.8001 157.88 42.9081 157.9 42.9401Z" fill="#263238"/>
<path d="M155.304 46.1001C155.076 45.9622 154.833 45.8508 154.58 45.7681C154.464 45.7281 154.356 45.6721 154.356 45.5881C154.378 45.4614 154.438 45.3443 154.528 45.2521L155.112 44.4521C155.638 43.7657 156.107 43.038 156.516 42.2761C155.937 42.9185 155.41 43.606 154.94 44.3321L154.368 45.1601C154.257 45.285 154.193 45.445 154.188 45.6121C154.194 45.6594 154.21 45.7046 154.237 45.7442C154.263 45.7838 154.299 45.8167 154.34 45.8401C154.401 45.8731 154.465 45.8999 154.532 45.9201C154.781 46.0126 155.04 46.0731 155.304 46.1001Z" fill="#263238"/>
<path d="M156.596 46.7762C156.52 46.7522 156.392 47.2602 155.864 47.5082C155.336 47.7562 154.812 47.5642 154.788 47.6322C154.764 47.7002 154.884 47.7642 155.112 47.8282C155.408 47.9076 155.722 47.8807 156 47.7522C156.268 47.6282 156.478 47.4043 156.584 47.1282C156.656 46.9242 156.632 46.8002 156.596 46.7762Z" fill="#263238"/>
<path d="M158.4 41.0482C158.4 41.1882 158.896 41.2482 159.428 41.4482C159.96 41.6482 160.364 41.9202 160.464 41.8242C160.564 41.7282 160.464 41.6402 160.316 41.4682C160.119 41.254 159.874 41.0907 159.6 40.9922C159.328 40.8854 159.035 40.8456 158.744 40.8762C158.532 40.9082 158.4 40.9842 158.4 41.0482Z" fill="#263238"/>
<path d="M153.96 40.072C154.016 40.2 154.36 40.172 154.76 40.268C155.16 40.364 155.456 40.52 155.56 40.428C155.664 40.336 155.58 40.264 155.464 40.128C155.304 39.9555 155.094 39.8367 154.864 39.788C154.636 39.7326 154.397 39.7508 154.18 39.84C154 39.912 153.936 40 153.96 40.072Z" fill="#263238"/>
<path d="M162.428 45.936C162.484 45.936 164.676 45.852 164.076 47.936C163.476 50.02 161.532 48.972 161.544 48.912C161.556 48.852 162.428 45.936 162.428 45.936Z" fill="#F6DBD3"/>
<path d="M162.4 48.2921C162.4 48.2921 162.428 48.3281 162.48 48.3721C162.556 48.4315 162.651 48.4614 162.748 48.4561C162.988 48.4561 163.272 48.148 163.392 47.78C163.449 47.6046 163.465 47.4187 163.44 47.236C163.44 47.1659 163.423 47.0968 163.39 47.0348C163.357 46.9728 163.31 46.9197 163.252 46.8801C163.213 46.8579 163.168 46.8494 163.124 46.856C163.08 46.8625 163.039 46.8836 163.008 46.9161C162.964 46.9681 162.968 47.0121 162.956 47.0121C162.944 47.0121 162.92 46.9641 162.956 46.8841C162.984 46.8377 163.026 46.8014 163.076 46.7801C163.145 46.752 163.223 46.752 163.292 46.7801C163.372 46.8209 163.44 46.8819 163.489 46.9569C163.538 47.032 163.567 47.1185 163.572 47.208C163.608 47.4123 163.594 47.6222 163.532 47.8201C163.396 48.2201 163.072 48.5601 162.732 48.5601C162.672 48.5598 162.613 48.546 162.559 48.5197C162.505 48.4933 162.457 48.4552 162.42 48.408C162.4 48.344 162.4 48.2921 162.4 48.2921Z" fill="#896357"/>
<path d="M155.396 37.14C155.12 36.856 156.44 36.076 157.372 35.94C158.776 35.752 160.768 35.972 161.812 36.636C163.064 37.436 164 38.464 164.316 39.92C164.596 41.3903 164.481 42.9084 163.984 44.32C163.868 44.7614 163.638 45.1644 163.316 45.488C162.892 45.856 162.256 45.976 162.092 46.612C162.038 46.8454 161.895 47.0481 161.692 47.176C161.192 47.464 160.848 46.948 160.748 46.508C160.536 45.568 160.776 44.592 161.012 43.656C161.145 42.9815 161.387 42.333 161.728 41.736C161.932 41.424 162.192 41.148 162.38 40.828C162.482 40.6715 162.55 40.4946 162.577 40.3096C162.605 40.1245 162.592 39.9357 162.54 39.756C162.509 39.6789 162.47 39.6051 162.424 39.536C162.213 39.2006 161.916 38.9273 161.565 38.7438C161.214 38.5604 160.82 38.4735 160.424 38.492C159.144 38.556 156.984 38.572 156.584 38.024C156.288 37.6737 156.07 37.2648 155.944 36.824L155.396 37.14Z" fill="#263238"/>
<path d="M161.788 36.3362C161.285 35.968 160.713 35.7032 160.107 35.557C159.501 35.4108 158.872 35.386 158.256 35.4842C157.928 35.5301 157.612 35.642 157.328 35.8132C157.044 35.9844 156.798 36.2112 156.604 36.4802C156.42 36.7553 156.338 37.0866 156.374 37.4158C156.41 37.745 156.561 38.0511 156.8 38.2802L156.832 38.3162C157.632 38.8762 158.228 38.9282 159.192 38.8882C159.992 38.8522 160.792 38.5962 161.592 38.5682C162.462 38.5373 163.321 38.7671 164.06 39.2282C163.569 38.0818 162.786 37.0846 161.788 36.3362Z" fill="#263238"/>
<path d="M165.048 39.6001C165.024 39.6001 164.92 39.3601 164.648 39.0241C164.496 38.8295 164.323 38.6524 164.132 38.4961C163.899 38.3034 163.626 38.1665 163.332 38.0961C162.796 37.9938 162.242 38.0422 161.732 38.2361C161.332 38.3881 161.124 38.5521 161.108 38.5321C161.092 38.5121 161.152 38.4761 161.248 38.4041C161.385 38.3001 161.534 38.2128 161.692 38.1441C162.22 37.909 162.809 37.8433 163.376 37.9561C163.689 38.0327 163.978 38.1836 164.22 38.3961C164.417 38.5604 164.589 38.7516 164.732 38.9641C164.881 39.1513 164.989 39.3681 165.048 39.6001Z" fill="#455A64"/>
<path d="M165.024 40.3762C164.941 40.5725 164.826 40.7537 164.684 40.9122C164.358 41.3112 163.966 41.6509 163.524 41.9162C163.082 42.1803 162.597 42.367 162.092 42.4682C161.886 42.5213 161.672 42.5363 161.46 42.5122C162.161 42.3818 162.837 42.1386 163.46 41.7922C164.053 41.4055 164.58 40.9276 165.024 40.3762Z" fill="#455A64"/>
<path d="M165.752 40.9682C165.743 41.0497 165.722 41.1294 165.688 41.2042C165.608 41.4127 165.512 41.6147 165.4 41.8082C165.024 42.4459 164.498 42.9826 163.868 43.3722C163.237 43.7591 162.519 43.9832 161.78 44.0242C161.558 44.0441 161.334 44.0441 161.112 44.0242C161.03 44.0202 160.949 44.004 160.872 43.9762C160.872 43.9482 161.22 43.9762 161.772 43.9402C162.488 43.8712 163.18 43.6397 163.793 43.2633C164.406 42.8869 164.926 42.3756 165.312 41.7682C165.6 41.2882 165.728 40.9602 165.752 40.9682Z" fill="#455A64"/>
<path d="M159.5 35.412C159.298 35.4351 159.095 35.4472 158.892 35.448C157.919 35.5193 156.993 35.8943 156.244 36.52C155.96 36.756 155.804 36.92 155.788 36.92C155.892 36.7397 156.027 36.5797 156.188 36.448C156.923 35.7593 157.889 35.3687 158.896 35.352C159.099 35.3379 159.303 35.3582 159.5 35.412Z" fill="#455A64"/>
<path d="M167.34 38.1602C167.141 38.5606 166.837 38.8991 166.46 39.1388C166.083 39.3786 165.647 39.5104 165.2 39.5202C165.617 39.3945 166.019 39.2256 166.4 39.0162C166.742 38.7637 167.057 38.4769 167.34 38.1602Z" fill="#455A64"/>
<path d="M167.284 59.2001C166.424 57.3721 160.084 54.4521 160.084 54.4521C159.486 55.4811 158.658 56.3575 157.664 57.0121C156.064 58.0081 154.172 57.6521 152.744 56.5761C151.396 55.5561 151.86 53.5641 151.86 53.5641C151.86 53.5641 144.888 53.2121 142.88 54.3081C140.872 55.4041 139.752 58.6161 139.752 58.6161L137.244 64.3041L139.88 68.1601L141.036 69.2801C141.036 69.2801 144.088 72.3881 149.72 73.3601C154.976 74.2681 159.536 72.0321 159.536 72.0321C162.336 71.0921 164.78 68.8321 167.028 65.7201C167.036 65.7321 168.284 61.3441 167.284 59.2001Z" fill="#455A64"/>
<path d="M139.78 55.3002C139.78 55.3002 141.42 53.2442 141.548 52.4202L142.196 48.0202C142.196 48.0202 141.956 47.5242 141.332 48.0882C140.708 48.6522 140.856 49.7362 140.856 49.7362L140.332 50.6642L140.032 49.7642L140.264 46.7642C140.264 46.7642 140.48 44.6082 140.1 44.7282C139.72 44.8482 139.46 45.4202 139.364 46.3522C139.268 47.2842 139.156 48.4602 139.156 48.4602C139.156 48.4602 139.096 48.8242 138.936 48.1402C138.776 47.4562 139.124 44.8842 139.092 44.5162C139.06 44.1482 139.264 43.2482 138.748 43.1522C138.232 43.0562 138.2 44.2642 138.2 44.2642L137.636 48.0562C137.636 48.0562 137.584 46.4562 137.568 46.1762C137.552 45.8962 137.64 45.0562 137.596 44.5762C137.552 44.0962 137.36 43.7762 137.128 43.7522C137.02 43.7275 136.907 43.7453 136.811 43.8019C136.716 43.8584 136.646 43.9495 136.616 44.0562L136.468 47.3962C136.468 47.3962 136.468 48.9402 136.42 49.0202C136.372 49.1002 136.02 48.2682 136.02 48.2682L135.908 47.1402C135.908 47.1402 135.988 45.6082 135.612 45.4562C135.236 45.3042 135.14 45.5922 135.14 45.5922L135.02 48.3922L135.332 51.7002L136.084 55.0282L137.308 55.2682L139.78 55.3002Z" fill="#F6DBD3"/>
<path d="M136.8 52.8001C136.996 52.6082 137.178 52.4024 137.344 52.1841C137.74 51.6775 138.31 51.3367 138.944 51.2281C139.252 51.1867 139.566 51.2516 139.832 51.4121L139.92 51.4681L139.976 51.3681C140.216 50.9281 140.488 50.5401 140.64 50.2601C140.792 49.9801 140.88 49.8041 140.856 49.7961C140.735 49.9167 140.629 50.0509 140.54 50.1961C140.274 50.5486 140.025 50.9144 139.796 51.2921L139.94 51.2481C139.638 51.0562 139.279 50.9755 138.924 51.0201C138.541 51.0629 138.177 51.2095 137.872 51.4441C137.63 51.6297 137.414 51.8463 137.228 52.0881C137.044 52.2981 136.899 52.5393 136.8 52.8001Z" fill="#896357"/>
<path d="M151.736 53.568L152.744 51.988L155.364 55.428L155.076 56.976L155.7 55.488L160.436 52.728L160.236 54.704L158.092 57.48L155.26 58.656L153.172 57.876C153.172 57.876 151.544 57.284 151.572 57.152C151.6 57.02 151.736 53.568 151.736 53.568Z" fill="#455A64"/>
<path d="M154.032 57.0561L154.272 58.3721L155.24 58.6241L156.116 57.6521L155.896 56.5041L154.748 56.1841L154.032 57.0561Z" fill="#0E3C6C"/>
<path d="M155.364 55.4281C155.256 55.6454 155.122 55.8483 154.964 56.0321C154.688 56.3961 154.292 56.9041 153.828 57.4801L153.728 57.6041L153.66 57.4601C153.54 57.2041 153.412 56.9321 153.26 56.6601C152.86 55.7961 152.496 55.0081 152.248 54.4321C152.096 54.1286 151.974 53.8112 151.884 53.4841C152.087 53.7565 152.26 54.0502 152.4 54.3601C152.684 54.9201 153.064 55.7001 153.468 56.5641L153.848 57.3641L153.676 57.3441C154.152 56.7761 154.568 56.2841 154.876 55.9441C155.018 55.7533 155.181 55.5801 155.364 55.4281Z" fill="#263238"/>
<path d="M160.344 54.3521C160.089 54.644 159.808 54.9119 159.504 55.152C158.968 55.636 158.216 56.296 157.38 57.012L156.228 58L156.1 58.108L156.072 57.944C155.944 57.224 155.84 56.612 155.772 56.176C155.723 55.9487 155.699 55.7166 155.7 55.484C155.791 55.699 155.855 55.9249 155.888 56.156C155.988 56.584 156.116 57.192 156.26 57.908L156.104 57.852L157.244 56.864C158.08 56.148 158.844 55.508 159.408 55.052C159.699 54.7921 160.012 54.5579 160.344 54.3521Z" fill="#263238"/>
<path d="M170.516 66.5002L171.028 63.6802C170.426 62.7268 169.704 61.8544 168.88 61.0842C168.021 60.1941 166.88 59.6288 165.652 59.4842C164.052 59.3562 162.544 60.1962 161.224 61.1122C159.904 62.0282 158.608 63.0722 157.052 63.4562C156.462 63.64 155.827 63.606 155.26 63.3602C154.432 62.9362 154.1 61.8762 154.24 60.9602C154.447 60.0492 154.84 59.1911 155.396 58.4402L154.348 58.1162C153.703 59.0088 153.144 59.9596 152.676 60.9562C152.298 61.8398 152.216 62.8224 152.444 63.7562C152.672 64.4366 153.078 65.0433 153.62 65.5127C154.163 65.9821 154.822 66.297 155.528 66.4242C156.952 66.6613 158.414 66.397 159.664 65.6762C160.804 65.0682 161.836 64.1922 163.096 63.8882C163.965 63.7065 164.869 63.7918 165.688 64.1331C166.508 64.4743 167.205 65.0555 167.688 65.8002L170.516 66.5002Z" fill="#0E3C6C"/>
<path d="M140.752 69.2001C140.696 69.2001 141.152 66.7681 141.744 63.7921C142.336 60.8161 142.888 58.4121 142.944 58.4241C143 58.4361 142.544 60.8561 141.948 63.8321C141.352 66.8081 140.8 69.2281 140.752 69.2001Z" fill="#263238"/>
<path d="M135.252 54.936L140.648 55.336L140.4 67.78L140.332 68.636C140.332 68.636 135.888 63.768 135.532 59.836C135.456 59 135.276 58.336 135.232 57.748C135.092 55.556 135.252 54.936 135.252 54.936Z" fill="#455A64"/>
<path d="M140.316 67.6C140.295 67.4394 140.295 67.2767 140.316 67.116C140.316 66.764 140.336 66.316 140.348 65.804C140.376 64.696 140.384 63.16 140.4 61.468C140.416 59.776 140.444 58.236 140.504 57.124C140.532 56.572 140.56 56.12 140.592 55.812C140.595 55.6498 140.617 55.4886 140.66 55.332C140.675 55.493 140.675 55.6551 140.66 55.816C140.66 56.168 140.66 56.616 140.66 57.132C140.66 58.288 140.632 59.796 140.616 61.468C140.6 63.14 140.568 64.7 140.504 65.808C140.472 66.364 140.44 66.812 140.404 67.124C140.391 67.2852 140.361 67.4447 140.316 67.6Z" fill="#263238"/>
<path d="M135.488 53.2002C135.494 53.2413 135.494 53.2831 135.488 53.3242C135.488 53.4162 135.464 53.5362 135.448 53.6842C135.416 54.0002 135.344 54.4842 135.292 55.0682C135.109 57.9529 135.641 60.8381 136.84 63.4682C138.03 66.0605 139.846 68.3162 142.124 70.0322C143.409 70.9875 144.82 71.7614 146.316 72.3322C147.808 72.9131 149.376 73.2742 150.972 73.4042C152.456 73.5433 153.953 73.4787 155.42 73.2122C156.751 72.9829 158.048 72.592 159.284 72.0482C159.845 71.8096 160.394 71.5426 160.928 71.2482C161.436 70.9562 161.912 70.6442 162.36 70.3482C162.808 70.0522 163.212 69.7282 163.56 69.4042C163.908 69.0802 164.276 68.7882 164.572 68.4802L165.4 67.6122L166.032 66.8322L166.3 66.5002L166.516 66.1922L166.848 65.7082L167.06 65.4122C167.082 65.3765 167.108 65.343 167.136 65.3122C167.136 65.3122 167.136 65.3522 167.076 65.4242L166.884 65.7282L166.564 66.2282L166.36 66.5442C166.276 66.6482 166.188 66.7642 166.096 66.8842L165.472 67.6842L164.672 68.5642C164.376 68.8802 164.016 69.1722 163.66 69.5082C163.304 69.8442 162.86 70.1322 162.46 70.4722C162.06 70.8122 161.536 71.0922 161.024 71.3922C160.488 71.6992 159.935 71.9756 159.368 72.2202C155.212 74.0558 150.498 74.1723 146.256 72.5442C144.736 71.9631 143.304 71.1742 142 70.2002C139.697 68.4619 137.868 66.1732 136.68 63.5442C135.483 60.8837 134.974 57.9649 135.2 55.0562C135.264 54.4562 135.352 53.9922 135.396 53.6762L135.452 53.3162C135.46 53.2764 135.472 53.2375 135.488 53.2002Z" fill="#263238"/>
<path d="M169.052 60.8602C169.068 60.6534 169.102 60.4485 169.156 60.2482C169.244 59.8482 169.34 59.2842 169.428 58.5802C169.648 56.734 169.578 54.8647 169.22 53.0402C169.016 52.0391 168.733 51.0559 168.372 50.1002C168.065 49.3232 167.708 48.567 167.304 47.8362C167.14 47.5202 166.964 47.2482 166.816 47.0082C166.668 46.7682 166.536 46.5602 166.416 46.3962C166.292 46.2287 166.181 46.0522 166.084 45.8682C166.231 46.0159 166.365 46.1765 166.484 46.3482C166.636 46.5391 166.777 46.7381 166.908 46.9442C167.068 47.1802 167.252 47.4482 167.428 47.7442C167.855 48.4703 168.228 49.227 168.544 50.0082C168.922 50.9718 169.216 51.9661 169.424 52.9802C169.786 54.8254 169.836 56.7184 169.572 58.5802C169.493 59.1413 169.38 59.6971 169.232 60.2442C169.19 60.4545 169.13 60.6606 169.052 60.8602Z" fill="#263238"/>
<path d="M152.092 39.1281C151.902 39.1709 151.707 39.1937 151.512 39.1961C151.324 39.1961 151.112 39.2281 150.832 39.2641C150.552 39.3001 150.264 39.3241 149.936 39.3881C149.162 39.5124 148.396 39.6861 147.644 39.9081C146.726 40.1871 145.83 40.5347 144.964 40.9481C144.104 41.3723 143.277 41.859 142.488 42.4041C141.848 42.8569 141.237 43.3499 140.66 43.8801C140.404 44.1001 140.196 44.3201 140.004 44.5041C139.812 44.6881 139.656 44.8601 139.532 44.9961C139.411 45.1411 139.277 45.275 139.132 45.3961C139.236 45.2292 139.355 45.0725 139.488 44.9281C139.604 44.7801 139.752 44.6041 139.936 44.4081C140.12 44.2121 140.336 43.9841 140.572 43.7561C141.143 43.2069 141.751 42.6977 142.392 42.2321C143.967 41.0967 145.726 40.2427 147.592 39.7081C148.354 39.4926 149.131 39.3322 149.916 39.2281C150.252 39.1721 150.556 39.1601 150.824 39.1321C151.092 39.1041 151.32 39.1001 151.512 39.1001C151.706 39.0942 151.9 39.1035 152.092 39.1281Z" fill="#263238"/>
<path d="M150.044 73.5401C149.988 73.5401 150.572 71.5121 151.344 69.0481C152.116 66.5841 152.788 64.6001 152.844 64.6161C152.9 64.6321 152.316 66.6441 151.544 69.1081C150.772 71.5721 150.096 73.5561 150.044 73.5401Z" fill="#263238"/>
<path d="M167.424 35.2961C167.424 35.2961 167.424 35.3361 167.424 35.4121C167.396 35.5242 167.347 35.63 167.28 35.7241C167.158 35.9028 166.992 36.0468 166.798 36.1422C166.604 36.2375 166.388 36.2809 166.172 36.2681C165.877 36.2289 165.599 36.1053 165.372 35.9121C165.141 35.7057 164.852 35.577 164.544 35.5441C164.205 35.5425 163.875 35.6553 163.608 35.8641C163.314 36.102 163.046 36.3701 162.808 36.6641C162.314 37.2376 161.732 37.7291 161.084 38.1201C160.547 38.4355 159.948 38.6294 159.328 38.6881C158.911 38.7247 158.492 38.6799 158.092 38.5561C157.948 38.5163 157.813 38.4513 157.692 38.3641C158.218 38.5331 158.774 38.593 159.324 38.5401C159.918 38.4657 160.49 38.2653 161 37.9521C161.624 37.5631 162.185 37.0816 162.664 36.5241C162.915 36.2282 163.196 35.96 163.504 35.7241C163.81 35.4905 164.187 35.3678 164.572 35.3761C164.914 35.4165 165.234 35.5635 165.488 35.7961C165.689 35.9773 165.937 36.0979 166.204 36.1441C166.395 36.1512 166.586 36.1125 166.759 36.031C166.932 35.9496 167.083 35.8279 167.2 35.6761C167.287 35.5574 167.362 35.4301 167.424 35.2961Z" fill="#263238"/>
<path d="M167.384 38.2202C167.384 38.2202 167.48 38.2202 167.64 38.2642C167.872 38.327 168.094 38.4255 168.296 38.5562C168.455 38.6563 168.587 38.7949 168.678 38.9592C168.77 39.1234 168.819 39.3081 168.82 39.4962C168.788 39.7215 168.706 39.9371 168.582 40.1278C168.458 40.3184 168.293 40.4797 168.1 40.6002C167.733 40.8543 167.298 40.9936 166.852 41.0002C166.489 41.0007 166.131 40.91 165.812 40.7362C165.601 40.6214 165.413 40.4697 165.256 40.2882C165.148 40.1562 165.108 40.0722 165.116 40.0642C165.349 40.2735 165.605 40.4547 165.88 40.6042C166.182 40.7465 166.514 40.8163 166.848 40.8082C167.255 40.7855 167.646 40.6467 167.976 40.4082C168.144 40.3037 168.289 40.1655 168.401 40.0024C168.513 39.8392 168.591 39.6546 168.628 39.4602C168.628 39.3029 168.589 39.148 168.516 39.0087C168.443 38.8694 168.337 38.7498 168.208 38.6602C168.022 38.5265 167.823 38.4138 167.612 38.3242C167.464 38.2762 167.38 38.2322 167.384 38.2202Z" fill="#263238"/>
<path d="M154.304 114.868C154.304 114.924 145.856 112.376 135.476 109.184C125.096 105.992 116.676 103.356 116.708 103.3C116.74 103.244 125.156 105.792 135.54 108.984C145.924 112.176 154.32 114.8 154.304 114.868Z" fill="#263238"/>
<path d="M153.6 116.504C153.6 116.56 145.152 114.016 134.772 110.824C124.392 107.632 116 104.996 116 104.94C116 104.884 124.444 107.428 134.828 110.624C145.212 113.82 153.624 116.452 153.6 116.504Z" fill="#263238"/>
<path d="M153.076 118.3C153.076 118.352 144.628 115.808 134.248 112.616C123.868 109.424 115.448 106.788 115.48 106.732C115.512 106.676 123.924 109.22 134.308 112.416C144.692 115.612 153.092 118.244 153.076 118.3Z" fill="#263238"/>
<path d="M152.544 120.092C152.544 120.148 144.096 117.6 133.716 114.408C123.336 111.216 114.916 108.58 114.948 108.524C114.98 108.468 123.396 111.016 133.78 114.208C144.164 117.4 152.56 120.036 152.544 120.092Z" fill="#263238"/>
<path d="M152 121.884C151.98 121.94 143.552 119.396 133.172 116.2C122.792 113.004 114.372 110.372 114.404 110.32C114.436 110.268 122.864 112.8 133.248 116C143.632 119.2 152.032 121.828 152 121.884Z" fill="#263238"/>
<path d="M143.924 83.2002C143.922 83.2922 143.909 83.3836 143.884 83.4722C143.86 83.6562 143.78 83.9082 143.692 84.2442C143.512 84.9082 143.232 85.8442 142.872 87.0442C142.152 89.4002 141.12 92.6442 139.964 96.2042C138.808 99.7642 137.732 103.004 136.948 105.332C136.548 106.48 136.24 107.416 136.008 108.088C135.9 108.396 135.808 108.644 135.74 108.836C135.714 108.925 135.68 109.011 135.636 109.092C135.648 109 135.669 108.908 135.7 108.82L135.932 108.064C136.144 107.384 136.444 106.44 136.808 105.288L139.764 96.1402C140.92 92.5842 141.964 89.3402 142.728 87.0002C143.1 85.8482 143.4 84.9042 143.616 84.2282C143.712 83.9002 143.804 83.6442 143.844 83.4722C143.866 83.3801 143.892 83.2893 143.924 83.2002Z" fill="#E0E0E0"/>
<path d="M155.364 58.5122C155.364 58.5682 155.092 58.5562 154.784 58.4842C154.476 58.4122 154.236 58.3082 154.248 58.2522C154.26 58.1962 154.52 58.2082 154.832 58.2802C155.144 58.3522 155.376 58.4562 155.364 58.5122Z" fill="#263238"/>
<path d="M162.82 89.1002C162.8 89.1522 154.372 86.5602 143.992 83.3082C133.612 80.0562 125.192 77.3762 125.224 77.3082C125.256 77.2402 133.668 79.8442 144.052 83.0962C154.436 86.3482 162.836 89.0442 162.82 89.1002Z" fill="#EBEBEB"/>
<path d="M141.2 102.556C141.284 102.499 141.383 102.467 141.484 102.464C141.764 102.436 142.046 102.502 142.284 102.652C142.467 102.76 142.618 102.913 142.722 103.098C142.826 103.283 142.879 103.492 142.876 103.704C142.88 103.968 142.803 104.227 142.654 104.445C142.506 104.663 142.293 104.829 142.047 104.922C141.8 105.015 141.53 105.029 141.275 104.963C141.019 104.897 140.791 104.753 140.62 104.552C140.475 104.393 140.375 104.197 140.331 103.986C140.288 103.775 140.302 103.556 140.372 103.352C140.451 103.085 140.619 102.852 140.848 102.692C140.926 102.625 141.022 102.584 141.124 102.572C141.124 102.572 141.032 102.632 140.9 102.756C140.705 102.922 140.565 103.144 140.5 103.392C140.451 103.568 140.448 103.753 140.491 103.931C140.535 104.108 140.623 104.271 140.748 104.404C140.894 104.573 141.089 104.693 141.306 104.748C141.522 104.803 141.751 104.791 141.96 104.713C142.17 104.634 142.35 104.494 142.477 104.31C142.604 104.126 142.672 103.908 142.672 103.684C142.679 103.502 142.638 103.321 142.554 103.159C142.47 102.997 142.345 102.86 142.192 102.76C141.984 102.615 141.737 102.536 141.484 102.532C141.292 102.544 141.2 102.576 141.2 102.556Z" fill="#E0E0E0"/>
<path d="M144.772 91.8402C144.856 91.7824 144.954 91.7504 145.056 91.7482C145.336 91.7209 145.617 91.787 145.856 91.9362C146.038 92.0441 146.188 92.1983 146.292 92.383C146.395 92.5678 146.447 92.7766 146.444 92.9882C146.448 93.252 146.371 93.5106 146.222 93.7287C146.074 93.9467 145.861 94.1136 145.615 94.2064C145.368 94.2992 145.098 94.3135 144.843 94.2472C144.587 94.1809 144.359 94.0374 144.188 93.8362C144.043 93.6769 143.943 93.4814 143.899 93.2702C143.856 93.0591 143.87 92.84 143.94 92.6362C144.022 92.3808 144.183 92.158 144.4 92.0002C144.479 91.9355 144.575 91.8952 144.676 91.8842C144.676 91.8842 144.588 91.9442 144.452 92.0642C144.258 92.2328 144.118 92.4557 144.052 92.7042C144.001 92.8795 143.997 93.0651 144.039 93.2426C144.082 93.4201 144.171 93.5834 144.296 93.7162C144.449 93.8718 144.642 93.9828 144.853 94.037C145.065 94.0913 145.287 94.0869 145.496 94.0242C145.701 93.9377 145.876 93.7946 146.002 93.6118C146.128 93.429 146.2 93.2141 146.208 92.9922C146.216 92.8107 146.176 92.6304 146.092 92.469C146.009 92.3077 145.885 92.1709 145.732 92.0722C145.522 91.9282 145.275 91.8476 145.02 91.8402C144.88 91.8282 144.776 91.8602 144.772 91.8402Z" fill="#E0E0E0"/>
<path d="M139.076 74.5319C139.16 74.4752 139.259 74.4433 139.36 74.4399C139.64 74.4118 139.922 74.4779 140.16 74.6279C140.343 74.7354 140.494 74.8893 140.598 75.0741C140.702 75.2589 140.755 75.4679 140.752 75.6799C140.756 75.9437 140.679 76.2023 140.53 76.4204C140.382 76.6385 140.169 76.8053 139.923 76.8981C139.676 76.991 139.406 77.0052 139.151 76.9389C138.895 76.8727 138.667 76.7291 138.496 76.5279C138.351 76.3687 138.251 76.1731 138.207 75.962C138.164 75.7508 138.178 75.5318 138.248 75.3279C138.327 75.0604 138.495 74.8277 138.724 74.6679C138.802 74.6012 138.898 74.5594 139 74.5479C139 74.5479 138.912 74.6079 138.776 74.7279C138.582 74.8967 138.443 75.1196 138.376 75.3679C138.327 75.5437 138.324 75.7292 138.367 75.9065C138.411 76.0838 138.499 76.2469 138.624 76.3799C138.77 76.5488 138.965 76.6689 139.182 76.724C139.398 76.7792 139.627 76.7667 139.836 76.6883C140.046 76.61 140.226 76.4695 140.353 76.2857C140.48 76.1018 140.548 75.8835 140.548 75.6599C140.555 75.4776 140.514 75.2966 140.43 75.1347C140.346 74.9727 140.221 74.8354 140.068 74.7359C139.86 74.5911 139.613 74.5117 139.36 74.5079C139.2 74.5199 139.08 74.5519 139.076 74.5319Z" fill="#E0E0E0"/>
<path d="M138.452 66.5042C138.504 66.5042 137.576 69.5802 136.38 73.3362C135.184 77.0922 134.164 80.1362 134.108 80.1082C134.052 80.0802 134.98 77.0322 136.18 73.2722C137.38 69.5122 138.4 66.4882 138.452 66.5042Z" fill="#EBEBEB"/>
<g opacity="0.3">
<path opacity="0.3" d="M117.372 101.2C117.372 101.2 122.824 85.1322 124.912 77.2002C122.156 80.4962 119.048 84.2802 117.428 88.2562C115.798 92.4133 115.778 97.0291 117.372 101.2Z" fill="black"/>
</g>
<path d="M123.34 143.9C122.822 144.018 122.371 144.335 122.084 144.782C121.797 145.229 121.697 145.771 121.805 146.291C121.914 146.811 122.222 147.268 122.664 147.564C123.106 147.859 123.646 147.969 124.168 147.87C124.69 147.771 125.152 147.472 125.456 147.035C125.759 146.599 125.879 146.061 125.79 145.537C125.701 145.014 125.41 144.546 124.979 144.234C124.549 143.923 124.013 143.793 123.488 143.872" fill="#0E3C6C"/>
</svg>
