<svg width="16" height="14" viewBox="0 0 16 14" fill="none" xmlns="http://www.w3.org/2000/svg">
<path d="M10.6417 2.13333V2.15833H10.6667H14.9333C15.5086 2.15833 15.975 2.62471 15.975 3.2V6.4C15.975 7.34064 15.5656 8.18574 14.9167 8.76652L14.9083 8.77398V8.78515V12.2667C14.9083 13.1365 14.2032 13.8417 13.3333 13.8417H2.66667C1.79682 13.8417 1.09167 13.1365 1.09167 12.2667V8.78496V8.77378L1.08334 8.76633C0.43451 8.1856 0.025 7.34067 0.025 6.4V3.2C0.025 2.62471 0.491371 2.15833 1.06667 2.15833H5.33333H5.35833V2.13333V1.06667C5.35833 0.49137 5.82471 0.025 6.4 0.025H9.6C10.1753 0.025 10.6417 0.49137 10.6417 1.06667V2.13333ZM9.625 1.06667V1.04167H9.6H6.4H6.375V1.06667V2.13333V2.15833H6.4H9.6H9.625V2.13333V1.06667ZM1.06667 3.175H1.04167V3.2V6.4C1.04167 7.10575 1.37987 7.73222 1.90529 8.12689C2.26607 8.39788 2.71365 8.55833 3.2 8.55833H7.46667H7.49167V8.53333V8C7.49167 7.71926 7.71926 7.49167 8 7.49167C8.28074 7.49167 8.50833 7.71926 8.50833 8V8.53333V8.55833H8.53333H12.8C13.2865 8.55833 13.734 8.398 14.0947 8.12708C14.6201 7.73245 14.9583 7.10579 14.9583 6.4V3.2V3.175H14.9333H10.6667H10.1333H5.86667H5.33333H1.06667ZM7.49167 9.6V9.575H7.46667H3.2C2.82913 9.575 2.47282 9.5112 2.14167 9.39408L2.10833 9.38229V9.41765V12.2667C2.10833 12.575 2.35831 12.825 2.66667 12.825H13.3333C13.6416 12.825 13.8917 12.575 13.8917 12.2667V9.41776V9.3824L13.8583 9.39419C13.5272 9.51126 13.1709 9.575 12.8 9.575H8.53333H8.50833V9.6V10.1333C8.50833 10.4141 8.28074 10.6417 8 10.6417C7.71926 10.6417 7.49167 10.4141 7.49167 10.1333V9.6Z" fill="#686868" stroke="white" stroke-width="0.05"/>
</svg>
