<svg width="24" height="24" viewBox="0 0 24 24" fill="none" xmlns="http://www.w3.org/2000/svg">
<path d="M15.3098 14.8484H15.3099L15.3097 14.8456C15.2574 14.0926 14.9647 13.461 14.426 13.0183C13.888 12.576 13.1088 12.3257 12.0899 12.3257L8.90739 12.3257C8.77484 12.3257 8.66739 12.4331 8.66739 12.5657L8.66739 17.2085C8.66739 17.3411 8.77484 17.4485 8.90739 17.4485L12.0899 17.4485C13.1226 17.4485 13.9277 17.1974 14.4753 16.7447C15.024 16.2913 15.3098 15.6393 15.3098 14.8484ZM7.89687 18.4555C7.64281 18.4555 7.43687 18.2495 7.43687 17.9955L7.43687 7.5752C7.43687 7.32114 7.64282 7.1152 7.89687 7.1152H15.2716C15.5257 7.1152 15.7316 7.32114 15.7316 7.5752V7.68189C15.7316 7.93594 15.5257 8.14189 15.2716 8.14189H8.90739C8.77484 8.14189 8.66739 8.24934 8.66739 8.38189V11.059C8.66739 11.1915 8.77484 11.299 8.90739 11.299L12.0899 11.299C13.5184 11.299 14.6254 11.5969 15.3746 12.1904C16.1222 12.7826 16.5193 13.6738 16.5193 14.8747C16.5193 16.0209 16.1259 16.9138 15.3795 17.5211C14.6318 18.1295 13.5247 18.4555 12.0899 18.4555L7.89687 18.4555Z" fill="#686868" stroke="white" stroke-width="0.08"/>
<path d="M7.86563 5.2373H15.136" stroke="#686868" stroke-width="0.9" stroke-linecap="round" stroke-linejoin="round"/>
</svg>
