<svg width="24" height="25" viewBox="0 0 24 25" fill="none" xmlns="http://www.w3.org/2000/svg">
<path d="M12.6486 10.5541C14.3204 10.5541 15.6757 9.19881 15.6757 7.52703C15.6757 5.85525 14.3204 4.5 12.6486 4.5C10.9769 4.5 9.62162 5.85525 9.62162 7.52703C9.62162 9.19881 10.9769 10.5541 12.6486 10.5541Z" stroke="#AFB2B5" stroke-width="1.5" stroke-linecap="round" stroke-linejoin="round"/>
<path d="M4 20.5C4 16.6787 7.48493 13.5811 11.7838 13.5811" stroke="#AFB2B5" stroke-width="1.5" stroke-linecap="round" stroke-linejoin="round"/>
<path d="M20 16.1758H13.9459V19.5001C13.9459 20.0524 14.3937 20.5001 14.9459 20.5001H19C19.5523 20.5001 20 20.0524 20 19.5001V16.1758Z" stroke="#AFB2B5" stroke-width="1.5" stroke-linecap="round" stroke-linejoin="round"/>
<path d="M18.2703 16.1756V14.8784C18.2703 14.1619 17.6895 13.5811 16.973 13.5811C16.2565 13.5811 15.6757 14.1619 15.6757 14.8784V16.1756" stroke="#AFB2B5" stroke-width="1.5" stroke-linecap="round" stroke-linejoin="round"/>
</svg>
