<svg width="24" height="24" viewBox="0 0 24 24" fill="none" xmlns="http://www.w3.org/2000/svg">
<path d="M9.78177 10.1928C11.1788 10.1928 12.3113 9.06033 12.3113 7.66332C12.3113 6.2663 11.1788 5.13379 9.78177 5.13379C8.38475 5.13379 7.25224 6.2663 7.25224 7.66332C7.25224 9.06033 8.38475 10.1928 9.78177 10.1928Z" stroke="#686868" stroke-linecap="round" stroke-linejoin="round"/>
<path d="M15.7081 18.8658C15.7081 15.6327 13.0871 13.0117 9.85405 13.0117C6.62095 13.0117 4 15.6327 4 18.8658" stroke="#686868" stroke-linecap="round" stroke-linejoin="round"/>
<path d="M20 18.8245C19.7913 15.8816 18.7575 14.4641 17.5531 13.4443" stroke="#686868" stroke-linecap="round" stroke-linejoin="round"/>
<path d="M15.4234 5.49512C16.1579 5.93775 16.6493 6.74315 16.6493 7.66328C16.6493 8.58342 16.1579 9.38882 15.4234 9.83145" stroke="#686868" stroke-linecap="round" stroke-linejoin="round"/>
</svg>
