<svg width="24" height="24" viewBox="0 0 24 24" fill="none" xmlns="http://www.w3.org/2000/svg">
<path fill-rule="evenodd" clip-rule="evenodd" d="M17.1381 4.19527C16.8777 3.93491 16.4556 3.93491 16.1953 4.19527L6.28607 14.1045C6.16612 14.2244 6.07017 14.3661 6.00335 14.5221L4.05392 19.0706C3.94654 19.3213 4.00252 19.612 4.19528 19.8048C4.38804 19.9974 4.67874 20.0534 4.9293 19.9461L9.47796 17.9966C9.63386 17.9298 9.7756 17.8338 9.89554 17.714L19.8048 7.80473C20.0651 7.54438 20.0651 7.12228 19.8048 6.86193L17.1381 4.19527ZM7.22888 15.0473L16.6667 5.60948L18.3905 7.33333L8.95273 16.7712L6.95899 17.6256L6.37441 17.041L7.22888 15.0473Z" fill="#2E4392"/>
</svg>
