<svg width="24" height="24" viewBox="0 0 24 24" fill="none" xmlns="http://www.w3.org/2000/svg">
<path d="M12 20C14.2091 20 16.2091 19.1046 17.6568 17.6568C19.1046 16.2091 20 14.2091 20 12C20 9.79088 19.1046 7.79088 17.6568 6.34314C16.2091 4.89543 14.2091 4 12 4C9.79088 4 7.79088 4.89543 6.34314 6.34314C4.89543 7.79088 4 9.79088 4 12C4 14.2091 4.89543 16.2091 6.34314 17.6568C7.79088 19.1046 9.79088 20 12 20Z" stroke="#686868" stroke-linejoin="round"/>
<path d="M12 13.9V12.3C13.3255 12.3 14.4 11.2255 14.4 9.9C14.4 8.57452 13.3255 7.5 12 7.5C10.6745 7.5 9.60001 8.57452 9.60001 9.9" stroke="#686868" stroke-linecap="round" stroke-linejoin="round"/>
<path fill-rule="evenodd" clip-rule="evenodd" d="M12 16.5C12.2761 16.5 12.5 16.2761 12.5 16C12.5 15.7239 12.2761 15.5 12 15.5C11.7239 15.5 11.5 15.7239 11.5 16C11.5 16.2761 11.7239 16.5 12 16.5Z" fill="#686868"/>
</svg>
