<svg width="80" height="80" viewBox="0 0 80 80" fill="none" xmlns="http://www.w3.org/2000/svg">
<circle cx="40" cy="40" r="40" fill="#EEEEEE"/>
<path d="M29.3333 52.333H50.6667C52.1395 52.333 53.3333 51.1391 53.3333 49.6663V35.7997C53.3333 34.3269 52.1395 33.133 50.6667 33.133H46.6667L43.3333 28.333H36.6667L33.3333 33.133H29.3333C27.8606 33.133 26.6667 34.3269 26.6667 35.7997V49.6663C26.6667 51.1391 27.8606 52.333 29.3333 52.333Z" fill="white"/>
<path d="M40 46.9997C42.9455 46.9997 45.3333 44.6119 45.3333 41.6663C45.3333 38.7208 42.9455 36.333 40 36.333C37.0545 36.333 34.6667 38.7208 34.6667 41.6663C34.6667 44.6119 37.0545 46.9997 40 46.9997Z" stroke="#E1E1E1" stroke-linecap="round" stroke-linejoin="round"/>
</svg>
