<svg width="24" height="24" viewBox="0 0 24 24" fill="none" xmlns="http://www.w3.org/2000/svg">
<path d="M12 14.4001C13.3255 14.4001 14.4 13.3256 14.4 12.0001C14.4 10.6746 13.3255 9.6001 12 9.6001C10.6745 9.6001 9.60001 10.6746 9.60001 12.0001C9.60001 13.3256 10.6745 14.4001 12 14.4001Z" stroke="#AFB2B5" stroke-width="1.5" stroke-linecap="round" stroke-linejoin="round"/>
<path d="M18.0979 10.7163L17.2198 8.59584L18.4 7.2L16.8 5.6L15.4118 6.78636L13.2462 5.89579L12.7482 4H11.1848L10.6793 5.9209L8.56353 6.81277L7.2 5.6L5.6 7.2L6.7627 8.63108L5.898 10.757L4 11.2V12.8L5.92089 13.3244L6.8126 15.4398L5.6 16.8L7.2 18.4L8.63293 17.2322L10.7176 18.0898L11.2 20H12.8L13.2836 18.0906L15.4041 17.2124C15.7575 17.465 16.8 18.4 16.8 18.4L18.4 16.8L17.2127 15.3995L18.0911 13.2784L19.9999 12.7818L20 11.2L18.0979 10.7163Z" stroke="#AFB2B5" stroke-width="1.5" stroke-linecap="round" stroke-linejoin="round"/>
</svg>
