<svg width="21" height="20" viewBox="0 0 21 20" fill="none" xmlns="http://www.w3.org/2000/svg">
<circle cx="10.5" cy="10" r="10" fill="#D14518" fill-opacity="0.1"/>
<path d="M10.8157 9.05378C11.6284 9.05378 12.2872 8.39498 12.2872 7.58231C12.2872 6.76964 11.6284 6.11084 10.8157 6.11084C10.003 6.11084 9.34424 6.76964 9.34424 7.58231C9.34424 8.39498 10.003 9.05378 10.8157 9.05378Z" stroke="#D14518" stroke-linecap="round" stroke-linejoin="round"/>
<path d="M6.61133 13.8885C6.61133 12.031 8.30539 10.5251 10.3951 10.5251" stroke="#D14518" stroke-linecap="round" stroke-linejoin="round"/>
<path d="M14.3892 11.7866H11.4463V12.8887C11.4463 13.441 11.894 13.8887 12.4463 13.8887H13.3892C13.9415 13.8887 14.3892 13.441 14.3892 12.8887V11.7866Z" stroke="#D14518" stroke-linecap="round" stroke-linejoin="round"/>
<path d="M13.5484 11.7864V11.1558C13.5484 10.8075 13.266 10.5251 12.9177 10.5251C12.5694 10.5251 12.2871 10.8075 12.2871 11.1558V11.7864" stroke="#D14518" stroke-linecap="round" stroke-linejoin="round"/>
</svg>
